<svg xmlns="http://www.w3.org/2000/svg" xmlns:xlink="http://www.w3.org/1999/xlink" viewBox="0,0,256,256" width="64px" height="64px" fill-rule="nonzero"><defs><linearGradient x1="32.091" y1="7" x2="32.091" y2="58.832" gradientUnits="userSpaceOnUse" id="color-1"><stop offset="0" stop-color="#ffffff"></stop><stop offset="1" stop-color="#ffffff"></stop></linearGradient><linearGradient x1="34.543" y1="27.681" x2="34.543" y2="53.09" gradientUnits="userSpaceOnUse" id="color-2"><stop offset="0" stop-color="#ffffff"></stop><stop offset="1" stop-color="#ffffff"></stop></linearGradient></defs><g fill="none" fill-rule="nonzero" stroke="none" stroke-width="1" stroke-linecap="butt" stroke-linejoin="miter" stroke-miterlimit="10" stroke-dasharray="" stroke-dashoffset="0" font-family="none" font-weight="none" font-size="none" text-anchor="none" style="mix-blend-mode: normal"><g transform="scale(4,4)"><path d="M51.4,16.3c-2.1,-5.1 -5.7,-8.6 -10.6,-10.3c-0.3,-0.1 -0.6,-0.2 -0.9,-0.2c-1.1,0 -2,0.6 -2.5,1.5c-0.7,1.3 -0.2,2.9 1.2,3.6c2.3,1.2 4.1,2.8 5.3,4.8c1.2,1.9 1.8,4.2 1.7,6.5c-0.2,3 -1.3,5.5 -3.4,7.6c-1.6,1.5 -3.3,2.6 -5.1,3v-0.9c0,-0.2 0,-0.3 0,-0.5c0.7,-0.2 1.4,-0.7 1.7,-1.4c0.5,-0.9 0.4,-2 -0.1,-2.8c-0.4,-0.6 -1.2,-1.3 -2.6,-1.3h-8.2c-1.5,0 -2.8,1.2 -2.8,2.7c0,1.2 0.8,2.2 1.9,2.6c0,0 0,0 0.1,0c0,0.2 0,0.4 0,0.5v0.9c-1.8,-0.5 -3.5,-1.5 -5,-3.1c-1.6,-1.7 -2.7,-3.5 -3.1,-5.3c-0.2,-0.9 -0.3,-1.9 -0.3,-2.9c0,-2.5 0.8,-4.8 2.4,-6.8c1.2,-1.5 2.7,-2.8 4.6,-3.8c0.9,-0.5 1.5,-1.4 1.5,-2.4c0,-1.5 -1.2,-2.7 -2.7,-2.7v0v0c-0.1,0 -0.3,0 -0.4,0c-0.2,0 -0.4,0.1 -0.6,0.1c-2.5,0.8 -4.8,2.3 -6.7,4.5c-1.8,1.9 -3.1,4 -4,6.4c-0.9,2.4 -1.4,5 -1.4,7.6c0,6.3 2.7,11.5 8,15.5c2.4,1.8 5,3 7.9,3.7v2c0,0.3 0.1,0.6 0.2,0.9c0.1,0.2 0.5,1.6 2.4,9.5c0.3,1.2 1.4,2.1 2.7,2.1v0h0.1c1.3,-0.1 2.5,-1 2.7,-2.3c0.4,-2.8 0.9,-5.4 1.5,-7.6c0.4,-1.9 0.5,-2.3 0.5,-2.6v-1.9c2.9,-0.6 5.6,-1.9 8.1,-3.7c3,-2.3 5.3,-5.2 6.7,-8.6c0.9,-2.1 1.3,-4.4 1.3,-6.9c-0.5,-2.6 -1,-5.3 -2.1,-8zM49.9,30.6c-1.3,3.1 -3.3,5.7 -6,7.8c-2.6,2 -5.6,3.2 -8.9,3.6v3.6c0,0.2 0,0.5 -0.4,2.1c-0.5,2.3 -1,4.9 -1.5,7.8c-0.1,0.3 -0.4,0.6 -0.8,0.6v0c-0.4,0 -0.7,-0.2 -0.8,-0.6c-2,-8 -2.4,-9.5 -2.5,-9.7c0,-0.1 0,-0.2 0,-0.2v-3.7c-3.2,-0.4 -6.1,-1.6 -8.6,-3.6c-4.8,-3.6 -7.2,-8.3 -7.2,-13.9c0,-2.3 0.4,-4.6 1.3,-6.9c0.8,-2.1 2,-4.1 3.6,-5.8c1.7,-1.9 3.7,-3.2 5.9,-3.9c0.1,0 0.1,0 0.2,0h0.1v0c0.4,0 0.8,0.3 0.8,0.7c0,0.3 -0.2,0.5 -0.4,0.6c-2.1,1.1 -3.8,2.6 -5.2,4.3c-1.9,2.3 -2.8,5.1 -2.8,8.1c0,1.1 0.1,2.2 0.3,3.3c0.5,2.2 1.7,4.3 3.6,6.3c0.8,0.8 1.6,1.5 2.4,2.1v2.8h2v-1.7c0.7,0.3 1.3,0.5 2,0.7v0v4h2v-7c0,-0.4 0,-0.9 0,-1.4c-0.1,-0.6 -0.5,-0.9 -1.1,-0.9c-0.1,0 -0.2,0 -0.3,-0.1c-0.4,-0.1 -0.6,-0.4 -0.6,-0.7c0,-0.4 0.4,-0.7 0.8,-0.7h8.2c0.2,0 0.7,0 1,0.4c0.1,0.2 0.2,0.5 0,0.7c-0.1,0.2 -0.3,0.4 -0.6,0.4c-1,0.1 -1.2,0.6 -1.3,1c-0.1,0.4 -0.1,0.8 -0.1,1.4v6.9h2v-4c0.1,0 0.1,0 0.2,0c0.6,-0.1 1.2,-0.3 1.8,-0.6v1.6h2v-2.7c0.9,-0.6 1.7,-1.2 2.5,-2c2.5,-2.5 3.9,-5.5 4,-9c0.1,-2.7 -0.5,-5.4 -2,-7.7c-1.4,-2.3 -3.5,-4.1 -6.1,-5.5c-0.3,-0.1 -0.4,-0.5 -0.3,-0.8c0.1,-0.3 0.4,-0.4 0.7,-0.4c0.1,0 0.2,0 0.3,0c4.3,1.5 7.5,4.6 9.4,9.2c1,2.4 1.5,4.9 1.5,7.4c0,2.2 -0.4,4.2 -1.1,6.1z" fill="url(#color-1)"></path><path d="M35,32.1c0,-0.5 0,-1 0.1,-1.4c0.1,-0.4 0.3,-0.8 1.3,-1c0.3,0 0.5,-0.2 0.6,-0.4c0.1,-0.2 0.1,-0.5 0,-0.7c-0.3,-0.4 -0.8,-0.4 -1,-0.4h-4v27.9c0.1,0 0.2,0.1 0.3,0.1v0c0.4,0 0.7,-0.3 0.8,-0.6c0.4,-2.9 0.9,-5.5 1.5,-7.8c0.4,-1.7 0.4,-2 0.4,-2.1v-3.7v0z" fill="url(#color-2)"></path></g></g></svg>